PathFileType	4	(X/Y/Z)	/Users/niels/Desktop/University/Third Semester/Perception and Action/Exam/Gymnastics Motion Tracking/Code for Gym Tracking/Analyzed Data/Webcam_Backflip/id5_2_trajectory_Sports2D/id5_2_trajectory_Sports2D_px_person00.trc
DataRate	CameraRate	NumFrames	NumMarkers	Units	OrigDataRate	OrigDataStartFrame	OrigNumFrames
29.770992366412216	29.770992366412216	8	22	m	29.770992366412216	81	131
Frame#	Time	Hip			RHip			RKnee			RAnkle			RBigToe			RSmallToe			RHeel			LHip			LKnee			LAnkle			LBigToe			LSmallToe			LHeel			Neck			Head			Nose			RShoulder			RElbow			RWrist			LShoulder			LElbow			LWrist		
		X1	Y1	Z1	X2	Y2	Z2	X3	Y3	Z3	X4	Y4	Z4	X5	Y5	Z5	X6	Y6	Z6	X7	Y7	Z7	X8	Y8	Z8	X9	Y9	Z9	X10	Y10	Z10	X11	Y11	Z11	X12	Y12	Z12	X13	Y13	Z13	X14	Y14	Z14	X15	Y15	Z15	X16	Y16	Z16	X17	Y17	Z17	X18	Y18	Z18	X19	Y19	Z19	X20	Y20	Z20	X21	Y21	Z21	X22	Y22	Z22
81	2.7207692307692306	0.8437457353058343	-0.6345781430868618	0.0	0.8407753490131231	-0.6369417943274243	0.0	0.9108681372594668	-0.7382395491793224	0.0	0.8938039496446457	-0.870393452510798	0.0	0.9449781450351202	-0.8816044149077799	0.0	0.9340931324342298	-0.8882038791340611	0.0	0.8796473748713713	-0.8863164764748663	0.0	0.8510568725213116	-0.6355642570797357	0.0	0.85264901793154	-0.7501246982535918	0.0	0.8250588388685192	-0.881937588343428	0.0	0.8821096869968633	-0.892331910435459	0.0	0.8759123587840952	-0.890855838459275	0.0	0.8139231144191659	-0.8967982086241335	0.0	0.8427924941802961	-0.4453603227255704	0.0	0.8554813184615453	-0.36521504085695083	0.0	0.8768604686707967	-0.41332199987638807	0.0	0.8145151551409721	-0.46984680635212095	0.0	0.8420868041107245	-0.5455154395245879	0.0	0.9033959612471605	-0.6000228752180181	0.0	0.8601596381584136	-0.47701371088157907	0.0	0.9028174274332262	-0.5500722154763017	0.0	0.9712726998340377	-0.5966595175776529	0.0
82	2.754358974358974	0.8461747379889738	-0.6364913899981367	0.0	0.8427759317493063	-0.6391592343036646	0.0	0.9148339416811238	-0.7388685119184597	0.0	0.8934731594338942	-0.8709620055090874	0.0	0.9446668857609458	-0.8837853025337886	0.0	0.9329403271559545	-0.8898379120275585	0.0	0.8781660030928667	-0.8865770641153544	0.0	0.8541609710374337	-0.6377602729008383	0.0	0.8543154610381669	-0.752306363373815	0.0	0.8248839944008619	-0.8838712530713418	0.0	0.882360735843088	-0.894192842797354	0.0	0.8752037441904453	-0.8929083378427974	0.0	0.8132990869460269	-0.8982693100770993	0.0	0.8431284299848871	-0.4473767353858513	0.0	0.8538345043106645	-0.36689936384189203	0.0	0.8768673677450205	-0.4146410918418749	0.0	0.8138419849442815	-0.473227403583654	0.0	0.8432817642683675	-0.5485418363326507	0.0	0.9086468362173322	-0.5983402754724375	0.0	0.8622558617283618	-0.4790938139599481	0.0	0.9076578105945106	-0.5494044245694019	0.0	0.9784306230888815	-0.5927126839664598	0.0
83	2.7879487179487175	0.8492624148335677	-0.637396676277412	0.0	0.8453696619159062	-0.6404016789177132	0.0	0.917221151214653	-0.7399413622157042	0.0	0.8929534076081824	-0.8721794496583835	0.0	0.944566327083917	-0.8861946523069466	0.0	0.9320770173827105	-0.8918104079597867	0.0	0.8771269585987429	-0.8876392034271625	0.0	0.8579642553451134	-0.6389556851455296	0.0	0.8563282374839797	-0.7536802758116712	0.0	0.8249422678991942	-0.884773559651253	0.0	0.8826893745925735	-0.895333249420318	0.0	0.8745960949004452	-0.8940725542772633	0.0	0.8128813309543096	-0.8988391440804088	0.0	0.8434925618913766	-0.4483912989513428	0.0	0.8525799803367589	-0.3675880132796431	0.0	0.8767623795980544	-0.4151062296977337	0.0	0.8135614940334758	-0.47543913608634947	0.0	0.8442829434497378	-0.5507255743557302	0.0	0.9133645771101918	-0.59605153501424	0.0	0.8645287822290624	-0.48011720610535996	0.0	0.9122130425273783	-0.5476145795924858	0.0	0.9845784097102755	-0.5876261327405518	0.0
84	2.821538461538461	0.8529654949985076	-0.6371588821325352	0.0	0.8485148892593772	-0.6405389535723038	0.0	0.917463540325668	-0.741559547442133	0.0	0.8922918135862197	-0.8742098242320613	0.0	0.9446040137753637	-0.8889013941397821	0.0	0.9315668437151202	-0.8941841131594493	0.0	0.8765408228074469	-0.8896615223838065	0.0	0.862405957449924	-0.6390215991035295	0.0	0.8592145825600813	-0.7542347211478772	0.0	0.8253681446590128	-0.8844246061408783	0.0	0.8830858169662421	-0.895778033214889	0.0	0.8740149269389734	-0.8942898768763455	0.0	0.812745083290123	-0.8982962352459961	0.0	0.8439707626836631	-0.4483499234290897	0.0	0.8516036530296809	-0.36720394367024944	0.0	0.8764778138501889	-0.4145927678346127	0.0	0.813855651056734	-0.4763440150439851	0.0	0.8459625929470027	-0.5511330961723422	0.0	0.9180668903931888	-0.592192684789481	0.0	0.8669192946371086	-0.48009113866037073	0.0	0.9168252513995301	-0.5445420997558087	0.0	0.9903667379715101	-0.5806264999194855	0.0
85	2.8551282051282048	0.8571639495366089	-0.6358528473999258	0.0	0.8519847324803526	-0.6396069901338918	0.0	0.9156180937048831	-0.7435227893184514	0.0	0.8916060309328501	-0.8768236859769756	0.0	0.9445637733048697	-0.89179431697771	0.0	0.9312297088106825	-0.8967911987853429	0.0	0.8763653332144696	-0.8924280331296977	0.0	0.8674429707706003	-0.6380002133823348	0.0	0.8636540629366052	-0.7540376315331677	0.0	0.8263038863444591	-0.8826186411912922	0.0	0.8835040722050692	-0.8955532074003459	0.0	0.8735049670886945	-0.8935100194154445	0.0	0.8129724737390598	-0.8963826051283734	0.0	0.8447145220809178	-0.4473665670944469	0.0	0.8508860661583926	-0.3658533294883943	0.0	0.8761759971054968	-0.41310519498651305	0.0	0.8147972717660479	-0.4760584471074427	0.0	0.8489658958250508	-0.5491807923436428	0.0	0.9233345522092502	-0.5854645463194184	0.0	0.8694607104174316	-0.47915632685720794	0.0	0.9218294663121273	-0.5401999563759114	0.0	0.9962892496515475	-0.5709793244535222	0.0
86	2.8887179487179484	0.8617104324856971	-0.6337602894911545	0.0	0.8554191529791081	-0.6378025164499599	0.0	0.9122964174591268	-0.7454830018352245	0.0	0.8910152560710503	-0.8795175067254438	0.0	0.9442491774243857	-0.8946200318849113	0.0	0.9308207833631857	-0.899336405623166	0.0	0.8765518469277257	-0.8954126735240282	0.0	0.8730686781188962	-0.6360664931992376	0.0	0.8703510659555035	-0.7531407107165843	0.0	0.8279461499551242	-0.8791519549595826	0.0	0.8839305373523864	-0.8946210499817174	0.0	0.8733712765871973	-0.8916726557666033	0.0	0.8137256877998619	-0.8927946508999285	0.0	0.8459077704500441	-0.4456613556320716	0.0	0.8505046609705877	-0.3637434609709549	0.0	0.8762392026590552	-0.41075427639553924	0.0	0.8163929928520138	-0.4748506802903014	0.0	0.8535127035437841	-0.5448202990412186	0.0	0.9295210074931224	-0.5746787568826635	0.0	0.8722671328381593	-0.4774989484236502	0.0	0.9274644745987853	-0.5348354137719834	0.0	1.0025400411769865	-0.5583260996133336	0.0
87	2.922307692307692	0.8664289186744321	-0.6313179598803994	0.0	0.8584660355843721	-0.6354807151632246	0.0	0.9084197243898368	-0.7471608607173899	0.0	0.8906448922979548	-0.8817709814800686	0.0	0.9436907989257803	-0.8970931672618259	0.0	0.9302818183325076	-0.9015513219643385	0.0	0.8770795185410235	-0.8980270197932446	0.0	0.879160733773234	-0.6335124369066728	0.0	0.8798639302604919	-0.7515541786698087	0.0	0.8305845794065404	-0.8738669328414947	0.0	0.8844673453675462	-0.8928368563849117	0.0	0.8741050001521473	-0.8887475738769465	0.0	0.8152965031704752	-0.8872831114483198	0.0	0.8477079078440718	-0.4435168924972372	0.0	0.8505644955425933	-0.36111285106888213	0.0	0.8771240187890765	-0.40774959748551903	0.0	0.8186259574950492	-0.4730266218453894	0.0	0.8594187908365816	-0.538502505120495	0.0	0.9365061873127462	-0.5593103939435272	0.0	0.8754701449503325	-0.4753318829665181	0.0	0.9338164322632461	-0.5289530546254636	0.0	1.0089735227706915	-0.5429495427660157	0.0
88	2.9558974358974357	0.8710726173733593	-0.6289841549865897	0.0	0.8608966367269089	-0.6330889663397359	0.0	0.9048795814944001	-0.748473686469383	0.0	0.8906089373321047	-0.8833091503453493	0.0	0.9431360979235701	-0.8990011025929638	0.0	0.9297809814738315	-0.9032942232718243	0.0	0.8778972791205888	-0.8999354580899671	0.0	0.8853204420167033	-0.6307369670853712	0.0	0.8922655795887776	-0.7492949200541537	0.0	0.8345792145457902	-0.866800378270187	0.0	0.8855049879842167	-0.889893684490614	0.0	0.8761992512953676	-0.884735380710508	0.0	0.8181000635872211	-0.8798201922260243	0.0	0.850174517568683	-0.4412329767518653	0.0	0.8511478019898828	-0.35823140767996925	0.0	0.879133183563936	-0.4044244649326888	0.0	0.8214503865665235	-0.4708522819551607	0.0	0.8662831924914628	-0.5310278407856813	0.0	0.9437301446710092	-0.5399540847610186	0.0	0.8791130231911269	-0.4729086709011825	0.0	0.9407624643223282	-0.5232185326377069	0.0	1.0152049179033191	-0.5258654627011791	0.0
